%TF.GenerationSoftware,KiCad,Pcbnew,8.0.5*%
%TF.CreationDate,2024-12-10T21:25:39+03:00*%
%TF.ProjectId,Capacitive_Power_Supply,43617061-6369-4746-9976-655f506f7765,rev?*%
%TF.SameCoordinates,Original*%
%TF.FileFunction,Copper,L1,Top*%
%TF.FilePolarity,Positive*%
%FSLAX46Y46*%
G04 Gerber Fmt 4.6, Leading zero omitted, Abs format (unit mm)*
G04 Created by KiCad (PCBNEW 8.0.5) date 2024-12-10 21:25:39*
%MOMM*%
%LPD*%
G01*
G04 APERTURE LIST*
%TA.AperFunction,ComponentPad*%
%ADD10C,2.000000*%
%TD*%
%TA.AperFunction,ComponentPad*%
%ADD11R,2.200000X2.200000*%
%TD*%
%TA.AperFunction,ComponentPad*%
%ADD12O,2.200000X2.200000*%
%TD*%
%TA.AperFunction,ComponentPad*%
%ADD13R,3.000000X3.000000*%
%TD*%
%TA.AperFunction,ComponentPad*%
%ADD14C,3.000000*%
%TD*%
%TA.AperFunction,ComponentPad*%
%ADD15R,2.000000X2.000000*%
%TD*%
%TA.AperFunction,Conductor*%
%ADD16C,0.800000*%
%TD*%
%TA.AperFunction,Profile*%
%ADD17C,0.050000*%
%TD*%
G04 APERTURE END LIST*
D10*
%TO.P,R3,1*%
%TO.N,Net-(D2-K)*%
X127170000Y-98500000D03*
%TO.P,R3,2*%
%TO.N,Net-(J1-Pin_2)*%
X114470000Y-98500000D03*
%TD*%
D11*
%TO.P,D2,1,K*%
%TO.N,Net-(D2-K)*%
X131610000Y-101040000D03*
D12*
%TO.P,D2,2,A*%
%TO.N,Net-(D2-A)*%
X141770000Y-101040000D03*
%TD*%
D13*
%TO.P,J1,1,Pin_1*%
%TO.N,Net-(J1-Pin_1)*%
X108060000Y-88620000D03*
D14*
%TO.P,J1,2,Pin_2*%
%TO.N,Net-(J1-Pin_2)*%
X108060000Y-93700000D03*
%TD*%
D15*
%TO.P,D5,1,K*%
%TO.N,Net-(D5-K)*%
X160590000Y-87745000D03*
D10*
%TO.P,D5,2,A*%
%TO.N,Net-(D1-K)*%
X160590000Y-85205000D03*
%TD*%
D13*
%TO.P,J2,1,Pin_1*%
%TO.N,Net-(D2-A)*%
X171390000Y-94240000D03*
D14*
%TO.P,J2,2,Pin_2*%
%TO.N,Net-(D1-K)*%
X171390000Y-89160000D03*
%TD*%
D10*
%TO.P,R2,1*%
%TO.N,Net-(D2-A)*%
X148320000Y-94850000D03*
%TO.P,R2,2*%
%TO.N,Net-(D5-K)*%
X158480000Y-94850000D03*
%TD*%
D11*
%TO.P,D1,1,K*%
%TO.N,Net-(D1-K)*%
X131960000Y-81290000D03*
D12*
%TO.P,D1,2,A*%
%TO.N,Net-(D1-A)*%
X131960000Y-91450000D03*
%TD*%
D11*
%TO.P,D4,1,K*%
%TO.N,Net-(D1-K)*%
X138450000Y-81290000D03*
D12*
%TO.P,D4,2,A*%
%TO.N,Net-(D2-K)*%
X138450000Y-91450000D03*
%TD*%
D10*
%TO.P,R1,1*%
%TO.N,Net-(J1-Pin_1)*%
X116450000Y-90710000D03*
%TO.P,R1,2*%
%TO.N,Net-(D1-A)*%
X126610000Y-90710000D03*
%TD*%
%TO.P,R4,1*%
%TO.N,Net-(D2-A)*%
X148320000Y-100990000D03*
%TO.P,R4,2*%
%TO.N,Net-(D6-A)*%
X158480000Y-100990000D03*
%TD*%
D15*
%TO.P,C2,1*%
%TO.N,Net-(D1-K)*%
X148630000Y-83252323D03*
D10*
%TO.P,C2,2*%
%TO.N,Net-(D2-A)*%
X148630000Y-88252323D03*
%TD*%
%TO.P,C1,1*%
%TO.N,Net-(D1-A)*%
X124460000Y-82180000D03*
%TO.P,C1,2*%
%TO.N,Net-(J1-Pin_1)*%
X116960000Y-82180000D03*
%TD*%
D11*
%TO.P,D3,1,K*%
%TO.N,Net-(D1-A)*%
X131610000Y-96080000D03*
D12*
%TO.P,D3,2,A*%
%TO.N,Net-(D2-A)*%
X141770000Y-96080000D03*
%TD*%
D15*
%TO.P,D6,1,K*%
%TO.N,Net-(D1-K)*%
X163730000Y-93810000D03*
D10*
%TO.P,D6,2,A*%
%TO.N,Net-(D6-A)*%
X163730000Y-101430000D03*
%TD*%
D16*
%TO.N,Net-(D1-A)*%
X131910000Y-91400000D02*
X131960000Y-91450000D01*
X126610000Y-89220000D02*
X126610000Y-90710000D01*
X126610000Y-90710000D02*
X127300000Y-91400000D01*
X124460000Y-87070000D02*
X126610000Y-89220000D01*
X131960000Y-95730000D02*
X131610000Y-96080000D01*
X127300000Y-91400000D02*
X131910000Y-91400000D01*
X131960000Y-91450000D02*
X131960000Y-95730000D01*
X124460000Y-82180000D02*
X124460000Y-87070000D01*
%TO.N,Net-(D1-K)*%
X138450000Y-81290000D02*
X138810000Y-81290000D01*
X158637323Y-83252323D02*
X160590000Y-85205000D01*
X131960000Y-81290000D02*
X138450000Y-81290000D01*
X167435000Y-85205000D02*
X171390000Y-89160000D01*
X148630000Y-83252323D02*
X158637323Y-83252323D01*
X160590000Y-85205000D02*
X167435000Y-85205000D01*
X163730000Y-93810000D02*
X166740000Y-93810000D01*
X166740000Y-93810000D02*
X171390000Y-89160000D01*
X140772323Y-83252323D02*
X148630000Y-83252323D01*
X138810000Y-81290000D02*
X140772323Y-83252323D01*
%TO.N,Net-(D2-K)*%
X138450000Y-94200000D02*
X131610000Y-101040000D01*
X127170000Y-98500000D02*
X129710000Y-101040000D01*
X129710000Y-101040000D02*
X131610000Y-101040000D01*
X131380000Y-101270000D02*
X131610000Y-101040000D01*
X138450000Y-91450000D02*
X138450000Y-94200000D01*
%TO.N,Net-(D2-A)*%
X141770000Y-101040000D02*
X148270000Y-101040000D01*
X148320000Y-97580000D02*
X168050000Y-97580000D01*
X148360000Y-88522323D02*
X148360000Y-94810000D01*
X168050000Y-97580000D02*
X171390000Y-94240000D01*
X148270000Y-101040000D02*
X148320000Y-100990000D01*
X148320000Y-94850000D02*
X148320000Y-100990000D01*
X148630000Y-88252323D02*
X148360000Y-88522323D01*
X148360000Y-94810000D02*
X148320000Y-94850000D01*
X141770000Y-96080000D02*
X141770000Y-101040000D01*
X148320000Y-94850000D02*
X148320000Y-97580000D01*
%TO.N,Net-(D5-K)*%
X160590000Y-92740000D02*
X158480000Y-94850000D01*
X160590000Y-87745000D02*
X160590000Y-92740000D01*
%TO.N,Net-(J1-Pin_1)*%
X114360000Y-88620000D02*
X116450000Y-90710000D01*
X116960000Y-82180000D02*
X116960000Y-86020000D01*
X108060000Y-88620000D02*
X114360000Y-88620000D01*
X116960000Y-86020000D02*
X114360000Y-88620000D01*
%TO.N,Net-(D6-A)*%
X163470000Y-101170000D02*
X158660000Y-101170000D01*
X158660000Y-101170000D02*
X158480000Y-100990000D01*
X163730000Y-101430000D02*
X163470000Y-101170000D01*
%TO.N,Net-(J1-Pin_2)*%
X108060000Y-93700000D02*
X112860000Y-98500000D01*
X112860000Y-98500000D02*
X114470000Y-98500000D01*
%TD*%
D17*
X103620000Y-79140000D02*
X177070000Y-79140000D01*
X177070000Y-103550000D01*
X103620000Y-103550000D01*
X103620000Y-79140000D01*
M02*
